<?xml version="1.0" standalone="no"?>
<!DOCTYPE svg PUBLIC "-//W3C//DTD SVG 20010904//EN"
 "http://www.w3.org/TR/2001/REC-SVG-20010904/DTD/svg10.dtd">
<svg version="1.0" xmlns="http://www.w3.org/2000/svg"
 width="282.000000pt" height="204.000000pt" viewBox="0 0 282.000000 204.000000"
 preserveAspectRatio="xMidYMid meet">

<g transform="translate(0.000000,204.000000) scale(0.100000,-0.100000)"
fill="#000000" stroke="none">
<path d="M171 2029 c-104 -18 -143 -60 -161 -175 -16 -103 -9 -1676 8 -1726
17 -50 64 -95 115 -110 61 -19 2493 -19 2554 0 54 16 99 61 115 115 10 33 13
231 13 887 0 656 -3 854 -13 887 -15 51 -60 98 -110 115 -29 10 -304 13 -1252
14 -687 1 -1238 -2 -1269 -7z m1889 -221 c48 -33 72 -70 77 -121 8 -68 -10
-107 -82 -175 -39 -36 -65 -70 -65 -82 0 -27 -25 -26 -27 2 -1 13 -29 48 -67
85 -92 87 -108 156 -56 241 44 72 152 96 220 50z m-1010 -328 c0 -49 -3 -58
-15 -54 -18 7 -20 65 -5 95 17 30 20 23 20 -41z m755 -24 c19 -19 19 -26 0
-26 -8 0 -15 -4 -15 -10 0 -5 5 -10 10 -10 6 0 10 -4 10 -10 0 -5 -9 -10 -20
-10 -11 0 -20 -4 -20 -10 0 -5 5 -10 10 -10 6 0 10 -4 10 -9 0 -6 -8 -10 -17
-10 -10 1 -27 -2 -38 -6 -14 -4 -29 2 -48 19 -29 27 -36 49 -12 40 10 -4 15 0
15 11 0 9 -4 13 -10 10 -5 -3 -10 1 -10 9 0 9 7 16 15 16 8 0 15 5 15 10 0 6
-4 10 -10 10 -5 0 -10 5 -10 11 0 6 7 9 15 5 8 -3 15 -1 15 4 0 12 77 -15 95
-34z m-470 -23 c14 -13 16 -28 11 -73 l-6 -55 43 -13 c34 -10 49 -11 69 -1 35
15 55 2 79 -50 10 -23 14 -39 9 -36 -6 3 -10 0 -10 -7 0 -20 -48 -86 -71 -99
-18 -9 -20 -8 -15 8 3 10 8 32 11 48 l6 30 -15 -26 c-25 -43 -90 -45 -86 -3 4
32 1 44 -11 44 -6 0 -9 -9 -6 -19 5 -20 -28 -37 -39 -20 -8 14 -24 11 -24 -6
0 -15 -61 -31 -79 -20 -14 8 -14 61 0 87 13 23 -2 67 -32 94 -15 13 -19 14
-19 3 -1 -10 -4 -9 -11 3 -14 25 6 58 36 58 24 0 59 -35 70 -71 4 -10 13 -19
22 -19 16 0 15 11 -3 92 -4 19 0 32 15 47 25 25 35 26 56 4z m-267 -240 l2
-193 -30 0 -30 0 0 188 c0 104 3 192 7 196 4 4 16 6 28 4 19 -3 20 -10 23
-195z m-208 159 c37 -28 51 -61 47 -110 -15 -144 -229 -144 -244 0 -11 106
110 174 197 110z m1077 -4 c-3 -8 -6 -5 -6 6 -1 11 2 17 5 13 3 -3 4 -12 1
-19z m-221 -14 c16 -4 20 -11 17 -25 -4 -13 -11 -18 -20 -15 -8 3 -21 6 -29 6
-8 0 -14 5 -14 11 0 6 7 9 15 5 8 -3 15 -1 15 3 0 5 -6 12 -12 14 -18 7 3 8
28 1z m238 -20 c3 -8 2 -12 -4 -9 -6 3 -10 10 -10 16 0 14 7 11 14 -7z m-235
-40 c13 -11 -8 -10 -34 2 l-30 13 30 -6 c17 -3 32 -7 34 -9z m-24 -54 c3 -6
-1 -7 -9 -4 -18 7 -21 14 -7 14 6 0 13 -4 16 -10z m215 -88 c1 -26 20 -62 34
-62 3 0 7 24 8 53 l2 52 3 -47 4 -48 50 0 c28 0 59 -5 70 -10 15 -8 19 -7 19
4 0 23 38 40 56 25 21 -17 18 -60 -6 -66 -16 -4 -18 -9 -9 -25 6 -10 9 -31 7
-46 -2 -21 -9 -28 -32 -30 -16 -2 -32 2 -36 8 -10 16 -31 3 -24 -15 8 -20 -31
-38 -56 -25 -23 12 -25 21 -8 38 8 8 5 14 -16 22 -34 13 -53 13 -61 0 -3 -5
-10 -10 -16 -10 -13 0 -11 57 3 66 7 5 4 10 -10 15 -29 11 -28 26 0 25 26 -1
37 29 14 37 -10 4 -22 -3 -33 -19 -14 -21 -14 -30 -4 -46 17 -27 5 -62 -20
-54 -65 20 -65 20 -51 3 7 -8 27 -19 43 -22 16 -4 29 -13 29 -21 0 -12 -4 -12
-20 -4 -12 6 -29 8 -40 5 -19 -6 -37 -42 -26 -52 12 -12 68 -6 78 8 8 11 9 10
4 -3 -3 -10 -4 -19 -3 -19 1 -1 49 -4 107 -8 94 -5 105 -8 108 -26 4 -19 3
-19 -10 -2 -12 16 -29 17 -163 15 l-150 -3 -3 -152 -3 -152 28 14 c37 20 45
19 77 -6 17 -14 26 -30 26 -50 0 -31 2 -32 37 -23 17 5 23 15 25 43 3 36 4 36
51 39 l49 3 -4 37 c-3 37 14 58 20 25 2 -10 8 -22 13 -27 5 -6 9 26 9 80 0 81
2 93 23 111 42 39 79 37 152 -9 80 -51 87 -59 100 -126 6 -26 6 -26 -7 -5 -11
19 -15 20 -31 8 -14 -10 -17 -24 -15 -57 3 -36 6 -43 24 -42 16 0 20 -5 17
-21 -3 -14 -17 -25 -45 -33 -37 -12 -41 -11 -63 10 -15 15 -22 30 -19 43 4 16
0 20 -18 20 -13 1 -40 4 -60 8 -30 6 -38 5 -38 -6 0 -8 7 -17 15 -21 9 -3 15
-19 15 -41 0 -26 4 -35 18 -36 9 -1 -5 -6 -33 -11 -27 -5 -53 -15 -57 -21 -6
-9 -8 -9 -8 1 0 6 -7 12 -15 12 -8 0 -15 -5 -15 -11 0 -6 -7 -3 -16 5 -21 21
-24 20 -24 -9 0 -20 5 -25 26 -25 14 0 23 -4 20 -8 -3 -5 -22 -7 -43 -5 -21 1
-47 -4 -60 -12 -26 -17 -61 -19 -97 -5 -31 11 -33 31 -7 47 13 8 18 19 14 33
-7 25 -18 25 -50 0 -17 -13 -33 -17 -54 -13 -30 6 -37 -5 -17 -25 9 -9 4 -12
-25 -12 -45 0 -49 20 -13 69 20 27 24 43 22 88 -1 35 -7 57 -16 63 -8 6 -52
10 -96 10 l-82 0 -22 -55 c-33 -80 -41 -83 -73 -20 -16 29 -44 71 -63 93 -38
45 -142 102 -186 102 l-28 0 0 116 0 116 25 -5 c21 -3 29 1 41 25 23 44 56 55
96 31 l34 -20 34 29 c19 15 42 28 52 28 18 0 48 -47 48 -75 0 -9 9 -15 25 -15
20 0 25 5 25 23 0 13 11 34 25 47 15 14 26 36 27 54 l1 31 4 -33 c3 -23 9 -32
18 -28 7 2 16 -2 19 -10 3 -8 0 -14 -5 -14 -6 0 -9 -9 -6 -20 3 -13 -1 -21
-15 -26 -29 -9 -18 -38 16 -42 37 -5 54 11 36 33 -11 13 -11 16 0 13 16 -4 20
24 5 34 -10 7 15 12 43 9 6 -1 12 5 12 14 0 9 9 15 25 15 19 0 25 5 25 21 0
18 -4 20 -32 15 -18 -3 -40 -1 -48 4 -13 8 -12 10 3 10 9 0 17 3 17 8 0 4 52
6 115 4 l115 -3 0 -27z m-1109 -69 c0 -32 2 -67 4 -77 6 -31 -8 -44 -16 -16
-11 39 -10 150 1 150 6 0 10 -26 11 -57z m126 -15 c-3 -8 -6 -5 -6 6 -1 11 2
17 5 13 3 -3 4 -12 1 -19z m20 0 c-3 -8 -6 -5 -6 6 -1 11 2 17 5 13 3 -3 4
-12 1 -19z m-57 -42 c0 -2 -13 -6 -30 -8 -16 -3 -30 -1 -30 4 0 4 14 8 30 8
17 0 30 -2 30 -4z m-203 -68 c25 -4 34 0 39 14 3 10 9 18 14 18 14 0 21 -18
10 -25 -6 -4 -9 -21 -8 -38 2 -18 -1 -34 -7 -35 -5 -2 -15 -8 -22 -13 -7 -7
-14 -6 -18 1 -3 6 -11 8 -16 5 -5 -4 -9 2 -9 12 0 15 -2 14 -16 -5 -26 -37
-11 -55 41 -50 38 5 45 3 51 -14 7 -25 28 -18 32 10 4 27 22 19 22 -9 0 -15 7
-19 38 -20 36 -1 37 -1 11 -12 -14 -7 -24 -18 -22 -24 3 -7 -3 -13 -11 -13 -9
0 -19 -7 -22 -15 -4 -8 -12 -15 -19 -15 -7 0 -51 -18 -98 -40 -47 -22 -87 -40
-90 -40 -7 0 -17 129 -11 145 4 8 14 15 24 15 22 0 34 32 26 65 -3 13 -2 34 3
48 5 13 5 30 1 37 -12 20 0 34 13 17 7 -8 27 -17 44 -19z m211 0 c7 -7 12 -21
12 -32 0 -19 -2 -18 -13 4 -8 15 -21 25 -35 24 -11 0 -19 3 -16 8 8 12 38 10
52 -4z m112 -7 c16 -30 12 -36 -8 -11 -19 24 -51 19 -53 -9 0 -10 -2 -12 -6
-3 -7 17 15 42 38 42 10 0 23 -9 29 -19z m-100 -175 c0 -3 -4 -8 -10 -11 -5
-3 -10 -1 -10 4 0 6 5 11 10 11 6 0 10 -2 10 -4z m70 -6 c0 -5 -4 -10 -10 -10
-5 0 -10 5 -10 10 0 6 5 10 10 10 6 0 10 -4 10 -10z m215 -14 c31 -31 41 -72
28 -107 -9 -23 -8 -31 8 -45 25 -23 9 -40 -21 -24 -39 21 -60 44 -60 66 0 17
-7 23 -32 27 -22 3 -36 0 -41 -9 -11 -19 -37 -18 -37 2 0 8 -4 12 -10 9 -16
-10 -11 29 7 55 27 40 45 49 91 50 32 0 49 -6 67 -24z m-287 -31 c0 -14 -6
-25 -13 -25 -8 0 -10 9 -7 25 2 14 8 25 12 25 4 0 8 -11 8 -25z m77 15 c-3 -5
-13 -10 -21 -10 -8 0 -14 5 -14 10 0 6 9 10 21 10 11 0 17 -4 14 -10z m915
-20 c0 -5 -4 -10 -10 -10 -5 0 -10 5 -10 10 0 6 5 10 10 10 6 0 10 -4 10 -10z
m30 0 c0 -5 -4 -10 -10 -10 -5 0 -10 5 -10 10 0 6 5 10 10 10 6 0 10 -4 10
-10z m30 0 c0 -5 -4 -10 -10 -10 -5 0 -10 5 -10 10 0 6 5 10 10 10 6 0 10 -4
10 -10z m-970 -10 c0 -5 -9 -10 -20 -10 -11 0 -20 5 -20 10 0 6 9 10 20 10 11
0 20 -4 20 -10z m322 -27 c51 -53 78 -116 78 -185 0 -53 2 -58 23 -59 45 -1
72 -10 84 -26 10 -13 15 -13 27 -4 10 8 16 9 21 1 3 -5 -1 -10 -9 -10 -8 0
-21 -7 -30 -15 -12 -12 -17 -13 -28 -2 -16 15 -38 20 -38 9 0 -4 -8 -9 -17
-10 -10 -1 -27 -3 -38 -6 -11 -2 -26 1 -32 7 -18 14 -16 57 2 57 11 0 15 11
15 43 0 52 -17 117 -31 117 -6 0 -7 5 -4 10 3 6 1 10 -4 10 -6 0 -11 6 -11 13
0 8 -9 22 -21 33 -25 22 -43 54 -31 54 4 0 24 -17 44 -37z m-442 -3 c0 -5 -2
-10 -4 -10 -3 0 -8 5 -11 10 -3 6 -1 10 4 10 6 0 11 -4 11 -10z m-312 -71 c3
-15 -8 -17 -85 -10 -7 1 -10 7 -7 15 8 21 88 16 92 -5z m519 -4 c7 -21 2 -25
-25 -18 -18 4 -20 8 -11 19 15 18 28 18 36 -1z m-89 -40 c-2 -1 -17 -7 -35
-13 -26 -9 -31 -8 -27 3 6 15 32 24 52 17 7 -2 12 -5 10 -7z m333 5 c10 -6 19
-16 19 -22 0 -9 -3 -9 -12 0 -7 7 -23 12 -37 12 -21 0 -23 2 -11 10 19 12 17
12 41 0z m907 -49 c31 -25 32 -29 18 -44 -9 -8 -16 -27 -16 -41 0 -25 2 -26
73 -28 39 -1 93 -2 120 -1 44 0 47 -1 47 -24 0 -24 -1 -25 -57 -19 -32 4 -87
8 -123 10 -36 1 -77 4 -92 4 -21 2 -28 7 -28 22 0 11 4 20 9 20 13 0 19 102 8
118 -17 22 7 13 41 -17z m-1433 5 c11 -2 -10 -4 -47 -5 -38 0 -68 2 -68 7 0 7
67 6 115 -2z m-229 -28 c17 -20 17 -21 1 -9 -10 8 -35 18 -55 22 l-37 7 36 1
c26 1 41 -5 55 -21z m595 -28 c24 -14 24 -42 0 -64 -26 -24 -52 -17 -71 17
-14 26 -14 29 4 43 23 17 40 18 67 4z m1144 -20 c3 -5 1 -10 -4 -10 -6 0 -11
5 -11 10 0 6 2 10 4 10 3 0 8 -4 11 -10z m-248 -42 c-3 -7 -5 -2 -5 12 0 14 2
19 5 13 2 -7 2 -19 0 -25z m296 25 c-7 -2 -19 -2 -25 0 -7 3 -2 5 12 5 14 0
19 -2 13 -5z m-293 -63 c0 -5 -2 -10 -4 -10 -3 0 -8 5 -11 10 -3 6 -1 10 4 10
6 0 11 -4 11 -10z"/>
<path d="M1910 1651 c0 -12 5 -21 10 -21 6 0 10 6 10 14 0 8 -4 18 -10 21 -5
3 -10 -3 -10 -14z"/>
<path d="M2032 1650 c0 -14 2 -19 5 -12 2 6 2 18 0 25 -3 6 -5 1 -5 -13z"/>
<path d="M1940 1643 c0 -32 59 -43 68 -13 5 13 3 13 -12 1 -14 -12 -19 -11
-36 4 -11 10 -20 13 -20 8z"/>
<path d="M1936 1531 c-15 -17 -14 -20 10 -46 l27 -29 18 23 c22 27 23 35 7 48
-26 20 -46 21 -62 4z"/>
<path d="M741 1284 c-32 -41 -8 -94 43 -94 27 0 40 10 56 39 10 20 9 27 -7 50
-28 37 -65 39 -92 5z m46 -9 c0 -8 -4 -12 -9 -9 -5 3 -6 10 -3 15 9 13 12 11
12 -6z"/>
<path d="M2114 1074 c3 -9 6 -18 6 -20 0 -2 9 -4 20 -4 13 0 20 7 20 20 0 15
-7 20 -26 20 -20 0 -25 -4 -20 -16z"/>
<path d="M1294 1009 c-3 -6 -1 -16 5 -22 8 -8 11 -8 11 2 0 7 5 9 13 5 8 -5 8
-2 -2 9 -16 20 -18 20 -27 6z"/>
<path d="M1189 963 c0 -5 -2 -17 -4 -27 -5 -25 23 -66 45 -66 22 0 35 16 44
53 5 23 3 29 -19 37 -31 12 -65 13 -66 3z"/>
<path d="M2010 926 c0 -8 5 -18 10 -21 6 -3 10 3 10 14 0 12 -4 21 -10 21 -5
0 -10 -6 -10 -14z"/>
<path d="M2121 719 c-15 -43 -15 -42 19 -62 29 -17 31 -17 60 0 26 15 30 22
25 43 -10 38 -24 50 -60 50 -28 0 -35 -5 -44 -31z"/>
<path d="M1952 450 c-10 -17 -10 -20 3 -20 8 0 15 9 15 20 0 11 -1 20 -3 20
-1 0 -8 -9 -15 -20z"/>
<path d="M701 874 c0 -11 3 -14 6 -6 3 7 2 16 -1 19 -3 4 -6 -2 -5 -13z"/>
<path d="M2200 415 c0 -8 4 -15 10 -15 5 0 7 7 4 15 -4 8 -8 15 -10 15 -2 0
-4 -7 -4 -15z"/>
<path d="M1100 425 c0 -8 5 -15 10 -15 6 0 10 7 10 15 0 8 -4 15 -10 15 -5 0
-10 -7 -10 -15z"/>
<path d="M1140 425 c0 -8 5 -15 10 -15 6 0 10 7 10 15 0 8 -4 15 -10 15 -5 0
-10 -7 -10 -15z"/>
</g>
</svg>
