<svg width="8" height="8" viewBox="0 0 8 8" fill="none" xmlns="http://www.w3.org/2000/svg">
<path d="M3.43307 1.03058C3.66068 0.856342 3.97704 0.856342 4.20464 1.03058L6.90649 3.0959C7.25061 3.3589 7.06603 3.90776 6.63369 3.90994H1.00348C0.571686 3.90776 0.386554 3.3589 0.731227 3.0959L3.43307 1.03058ZM3.81858 2.95705C3.92689 2.95705 4.03077 2.91403 4.10735 2.83744C4.18394 2.76085 4.22696 2.65698 4.22696 2.54867C4.22696 2.44036 4.18394 2.33649 4.10735 2.2599C4.03077 2.18332 3.92689 2.14029 3.81858 2.14029C3.71027 2.14029 3.6064 2.18332 3.52982 2.2599C3.45323 2.33649 3.4102 2.44036 3.4102 2.54867C3.4102 2.65698 3.45323 2.76085 3.52982 2.83744C3.6064 2.91403 3.71027 2.95705 3.81858 2.95705Z" fill="white"/>
<path d="M1.36816 4.45447V6.08799H2.18493V4.45447H1.36816Z" fill="white"/>
<path d="M2.72949 4.45447V6.08799H3.54625V4.45447H2.72949Z" fill="white"/>
<path d="M4.09033 4.45447V6.08799H4.90709V4.45447H4.09033Z" fill="white"/>
<path d="M5.45166 4.45447V6.08799H6.26842V4.45447H5.45166Z" fill="white"/>
<path d="M0.55127 7.31308C0.55127 6.93737 0.856194 6.63245 1.2319 6.63245H6.40472C6.78043 6.63245 7.08536 6.93737 7.08536 7.31308V7.44921C7.08536 7.52141 7.05668 7.59066 7.00562 7.64172C6.95456 7.69278 6.88531 7.72146 6.81311 7.72146H0.823523C0.751317 7.72146 0.682068 7.69278 0.631011 7.64172C0.579953 7.59066 0.55127 7.52141 0.55127 7.44921V7.31308Z" fill="white"/>
</svg>
