<svg width="7" height="9" viewBox="0 0 7 9" fill="none" xmlns="http://www.w3.org/2000/svg">
<path d="M4.42387 0.824463C4.54162 0.824463 4.65821 0.847655 4.76699 0.892714C4.87578 0.937774 4.97462 1.00382 5.05788 1.08708C5.14114 1.17034 5.20718 1.26918 5.25224 1.37796C5.2973 1.48675 5.32049 1.60334 5.32049 1.72109L5.32013 1.91348H6.6019C6.69817 1.91348 6.79051 1.95172 6.85858 2.0198C6.92666 2.08788 6.9649 2.18021 6.9649 2.27648L6.96454 3.54664L6.40914 3.547C6.18163 3.54706 5.96264 3.6336 5.79656 3.78911C5.63047 3.94461 5.52971 4.15743 5.5147 4.38445L5.51288 4.44362V4.4654C5.51285 4.69298 5.59936 4.91206 5.75487 5.07822C5.91038 5.24438 6.12325 5.34519 6.35034 5.36021L6.40951 5.36203L6.96454 5.36166L6.9649 6.63363C6.9649 6.72991 6.92666 6.82224 6.85858 6.89031C6.79051 6.95839 6.69817 6.99664 6.6019 6.99664L5.32013 6.99627V7.18794C5.32253 7.30718 5.30112 7.4257 5.25714 7.53656C5.21317 7.64743 5.14752 7.7484 5.06404 7.83358C4.98056 7.91875 4.88093 7.98642 4.77097 8.03261C4.66102 8.07881 4.54295 8.1026 4.42369 8.1026C4.30442 8.1026 4.18636 8.07881 4.0764 8.03261C3.96645 7.98642 3.86681 7.91875 3.78333 7.83358C3.69985 7.7484 3.63421 7.64743 3.59023 7.53656C3.54626 7.4257 3.52485 7.30718 3.52725 7.18794V6.99627H2.24584C2.14956 6.99627 2.05723 6.95803 1.98916 6.88995C1.92108 6.82188 1.88283 6.72954 1.88283 6.63327L1.88247 5.3515H1.69008C1.45228 5.3515 1.22422 5.25703 1.05607 5.08888C0.887922 4.92073 0.793457 4.69267 0.793457 4.45488C0.793457 4.21708 0.887922 3.98902 1.05607 3.82087C1.22422 3.65272 1.45228 3.55825 1.69008 3.55825H1.88283V2.27648C1.88283 2.18021 1.92108 2.08788 1.98916 2.0198C2.05723 1.95172 2.14956 1.91348 2.24584 1.91348H3.52725V1.72109C3.52725 1.48329 3.62171 1.25523 3.78986 1.08708C3.95801 0.918928 4.18607 0.824463 4.42387 0.824463Z" fill="white"/>
</svg>
