<svg width="8" height="7" viewBox="0 0 8 7" fill="none" xmlns="http://www.w3.org/2000/svg">
<path d="M2.142 3.96481L3.42486 5.24839L2.91194 5.76168L3.42559 6.27533L2.9123 6.78862L2.01386 5.89019L0.986922 6.91713L0.473633 6.40384L1.50057 5.37653L0.602137 4.47846L1.11543 3.96517L1.62871 4.4781L2.14164 3.96481H2.142ZM0.671834 0.187378L1.95905 0.188467L6.24868 4.47846L6.76233 3.96517L7.27562 4.47846L6.37755 5.3769L7.40412 6.40384L6.89083 6.91713L5.86389 5.89019L4.96546 6.78862L4.45217 6.27533L4.96546 5.76168L0.672923 1.46915L0.671834 0.187378ZM5.9198 0.187378L7.20592 0.188467L7.20665 1.46733L5.73539 2.93823L4.4518 1.65501L5.9198 0.187378Z" fill="white"/>
</svg>
