<svg width="8" height="9" viewBox="0 0 8 9" fill="none" xmlns="http://www.w3.org/2000/svg">
<path d="M4.18181 8.08444C5.53182 8.08444 6.74571 7.34573 7.37952 6.15543L4.54481 4.45439L7.37952 2.75335C6.74571 1.56306 5.53182 0.824341 4.18181 0.824341C2.1802 0.824341 0.551758 2.45278 0.551758 4.45439C0.551758 6.456 2.1802 8.08444 4.18181 8.08444ZM4.00031 2.27636C4.14477 2.27641 4.28329 2.33384 4.38541 2.43602C4.48752 2.53821 4.54486 2.67677 4.54481 2.82123C4.54476 2.96569 4.48733 3.10422 4.38515 3.20633C4.28297 3.30845 4.1444 3.36579 3.99994 3.36574C3.85548 3.36569 3.71696 3.30826 3.61484 3.20607C3.51273 3.10389 3.45539 2.96533 3.45543 2.82087C3.45548 2.67641 3.51292 2.53788 3.6151 2.43577C3.71728 2.33365 3.85584 2.27631 4.00031 2.27636Z" fill="white"/>
</svg>
