<svg width="15" height="15" viewBox="0 0 15 15" fill="none" xmlns="http://www.w3.org/2000/svg">
<path d="M10.6379 3.95833C11.3562 3.95657 12.0484 4.22771 12.5744 4.71689C13.1004 5.20607 13.421 5.87678 13.4713 6.59333L13.875 12.26C13.8916 12.4739 13.8621 12.6888 13.7887 12.8904C13.7152 13.0919 13.5994 13.2754 13.449 13.4284C13.2987 13.5814 13.1173 13.7005 12.9171 13.7775C12.7169 13.8545 12.5025 13.8878 12.2883 13.875C11.944 13.8438 11.6193 13.701 11.3635 13.4683C11.1078 13.2356 10.9351 12.9257 10.8717 12.5858L10.3333 10.1846C10.2988 10.0235 10.2091 9.87948 10.0799 9.77734C9.95057 9.67521 9.78973 9.62134 9.62501 9.625H5.33251C5.16779 9.62134 5.00694 9.67521 4.87765 9.77734C4.74837 9.87948 4.65873 10.0235 4.62417 10.1846L4.10709 12.5858C4.04367 12.9257 3.87096 13.2356 3.61523 13.4683C3.35951 13.701 3.03477 13.8438 2.69042 13.875C2.47802 13.8846 2.26598 13.8491 2.06835 13.7707C1.87072 13.6922 1.692 13.5727 1.54401 13.42C1.39602 13.2674 1.28215 13.085 1.20991 12.885C1.13768 12.685 1.10874 12.472 1.12501 12.26L1.52876 6.59333C1.57904 5.87678 1.8996 5.20607 2.4256 4.71689C2.95161 4.22771 3.64378 3.95657 4.36209 3.95833H10.6379ZM7.50001 1.125V3.95833V1.125ZM9.62501 3.95833H5.37501L5.72917 5.375H9.27084L9.62501 3.95833Z" fill="white" stroke="#77B7CA" stroke-linecap="round" stroke-linejoin="round"/>
</svg>
